<?xml version="1.0" standalone="no"?>
<!DOCTYPE svg PUBLIC "-//W3C//DTD SVG 20010904//EN"
 "http://www.w3.org/TR/2001/REC-SVG-20010904/DTD/svg10.dtd">
<svg version="1.0" xmlns="http://www.w3.org/2000/svg"
 width="260.000000pt" height="260.000000pt" viewBox="0 0 260.000000 260.000000"
 preserveAspectRatio="xMidYMid meet">
<metadata>
Created by potrace 1.14, written by Peter Selinger 2001-2017
</metadata>
<g transform="translate(0.000000,260.000000) scale(0.100000,-0.100000)"
fill="#000000" stroke="none">
<path d="M1158 2504 c-3 -3 -27 -8 -93 -19 -71 -13 -96 -20 -166 -45 -243 -90
-441 -239 -584 -438 -41 -58 -140 -242 -129 -242 4 0 -1 -8 -10 -19 -9 -10
-16 -22 -15 -27 1 -5 0 -16 -4 -24 -10 -25 -27 -86 -32 -109 -2 -13 -6 -30 -9
-39 -14 -46 -18 -88 -21 -217 -3 -138 6 -219 39 -350 15 -60 77 -218 89 -226
5 -3 9 -10 9 -15 0 -19 88 -158 133 -213 62 -74 241 -231 265 -231 5 0 13 -6
17 -13 17 -26 256 -136 333 -152 8 -2 15 -4 15 -5 0 -3 27 -8 120 -23 56 -10
139 -14 220 -13 181 4 323 37 480 110 39 18 74 33 79 34 5 0 12 4 15 9 3 5 24
20 46 33 22 13 45 28 50 32 6 5 28 22 50 39 59 45 185 167 185 179 0 5 4 10 8
10 26 0 202 325 217 398 1 9 8 35 13 57 32 120 41 201 37 340 -2 72 -5 137 -8
145 -2 8 -7 37 -12 65 -4 27 -15 65 -23 85 -8 19 -13 35 -12 35 3 0 -8 41 -19
70 -23 60 -101 209 -142 270 -47 68 -178 215 -193 215 -4 0 -21 13 -38 29 -36
34 -217 147 -230 143 -4 -1 -8 3 -8 9 0 5 -4 7 -10 4 -5 -3 -10 -1 -10 6 0 7
-3 9 -7 6 -3 -4 -11 -3 -17 1 -6 5 -33 16 -61 26 -27 10 -57 20 -65 23 -8 3
-21 7 -29 9 -7 1 -34 8 -60 14 -25 6 -62 13 -81 16 -38 7 -327 14 -332 8z"/>
</g>
</svg>
